<?xml version="1.0" encoding="UTF-8" standalone="no"?>
<!-- Created with Inkscape (http://www.inkscape.org/) -->

<svg
   xmlns:dc="http://purl.org/dc/elements/1.1/"
   xmlns:cc="http://creativecommons.org/ns#"
   xmlns:rdf="http://www.w3.org/1999/02/22-rdf-syntax-ns#"
   xmlns:svg="http://www.w3.org/2000/svg"
   xmlns="http://www.w3.org/2000/svg"
   xmlns:sodipodi="http://sodipodi.sourceforge.net/DTD/sodipodi-0.dtd"
   xmlns:inkscape="http://www.inkscape.org/namespaces/inkscape"
   id="svg3390"
   version="1.1"
   inkscape:version="0.91 r13725"
   width="126.6"
   height="126.6"
   viewBox="0 0 126.6 126.6"
   sodipodi:docname="staffconnect.svg">
  <metadata
     id="metadata3396">
    <rdf:RDF>
      <cc:Work
         rdf:about="">
        <dc:format>image/svg+xml</dc:format>
        <dc:type
           rdf:resource="http://purl.org/dc/dcmitype/StillImage" />
        <dc:title></dc:title>
      </cc:Work>
    </rdf:RDF>
  </metadata>
  <defs
     id="defs3394" />
  <sodipodi:namedview
     pagecolor="#ffffff"
     bordercolor="#666666"
     borderopacity="1"
     objecttolerance="10"
     gridtolerance="10"
     guidetolerance="10"
     inkscape:pageopacity="0"
     inkscape:pageshadow="2"
     inkscape:window-width="1600"
     inkscape:window-height="847"
     id="namedview3392"
     showgrid="false"
     inkscape:zoom="3.8361748"
     inkscape:cx="-15.025345"
     inkscape:cy="54.022574"
     inkscape:window-x="0"
     inkscape:window-y="0"
     inkscape:window-maximized="1"
     inkscape:current-layer="svg3390" />
  <g
     id="g3598"
     transform="translate(0.03166564,0.13553144)">
    <path
       style="fill:#e7f0df"
       d="m 6.375,71.175375 c 3.25875,-0.04843 8.59125,-0.04843 11.85,0 3.25875,0.04843 0.5925,0.08806 -5.925,0.08806 -6.5175,0 -9.18375,-0.03963 -5.925,-0.08806 z m 45.322182,-2.88e-4 c 6.240948,-0.04529 16.365948,-0.04527 22.5,4.8e-5 6.134049,0.04532 1.027818,0.08237 -11.347182,0.08235 -12.375,-2.7e-5 -17.393769,-0.0371 -11.152818,-0.08239 z m 52.164688,0.0027 c 1.10654,-0.05756 2.99654,-0.05794 4.2,-9e-4 1.20347,0.05709 0.29813,0.104181 -2.01187,0.104649 -2.31,6e-4 -3.29466,-0.04624 -2.18813,-0.103797 z"
       id="path3604"
       inkscape:connector-curvature="0" />
    <path
       style="fill:#9ecd63"
       d="M 57.75,126.41651 C 38.738721,124.42387 22.259294,114.95266 11.351629,99.75 9.3855858,97.009809 4.8,88.408998 4.8,87.46164 4.8,87.372738 8.6433516,87.3 13.340781,87.3 l 8.540782,0 1.094231,1.725 c 1.750311,2.759277 5.339058,7.034427 8.094438,9.642624 5.938965,5.621726 14.365785,9.867256 23.090652,11.633336 2.099073,0.42488 4.104369,0.54484 9.139116,0.54668 5.677653,0.002 6.826287,-0.0819 9.592434,-0.70095 8.466822,-1.89497 15.979449,-5.61393 22.211808,-10.995463 C 100.08031,94.854471 104.77543,88.089261 107.70136,81 c 1.13229,-2.743437 2.80613,-8.887176 2.58106,-9.473679 C 110.14235,71.161284 105.11506,71.1 75.309414,71.1 41.87802,71.1 40.5,71.121564 40.5,71.644698 c 0,0.299586 0.527907,1.583184 1.173129,2.852442 4.490871,8.834298 14.285526,14.032005 24.135612,12.807987 5.580597,-0.693471 9.947622,-2.730468 13.771527,-6.423726 L 81.010536,79.5 l 8.994732,0 c 4.947102,0 8.992476,0.10125 8.989719,0.225 -0.01257,0.564492 -2.753052,5.259045 -4.25085,7.281891 C 88.46535,95.486676 79.531041,100.91106 69.257388,102.48094 65.520444,103.05198 58.264857,102.90909 55.05,102.20116 43.052649,99.559278 33.698142,92.499918 28.097944,81.861852 26.841725,79.475553 24.954121,74.39775 24.459817,72.075 l -0.20749,-0.975 -11.948166,0 -11.94816627,0 -0.2204003,-2.925 C -0.15358266,64.337241 0.16032075,56.681376 0.75352332,53.104182 1.8586353,46.440015 3.6405423,41.000619 6.7744002,34.725027 12.861371,22.535792 22.631555,12.825659 34.918077,6.7543332 44.21679,2.1594186 52.483332,0.23094473 63,0.20319617 69.947817,0.18486414 74.318082,0.7737888 80.763354,2.5969352 98.250315,7.5433977 113.44348,20.629284 121.02579,37.275 l 1.05906,2.325 -8.62774,0 -8.62774,0 -0.53561,-0.906714 C 102.95672,36.429864 99.144144,31.71738 96.715206,29.325916 89.557662,22.278807 81.05364,17.954323 70.8,16.147462 69.474291,15.91385 66.331701,15.754502 63.15,15.759561 56.934216,15.769446 53.148771,16.372274 47.959005,18.178714 40.72521,20.696632 35.146755,24.228453 29.542573,29.83849 23.895659,35.491305 20.314176,41.116278 18.052279,47.884815 17.347357,49.994235 16.2,54.824751 16.2,55.683141 16.2,55.747413 18.019928,55.8 20.244284,55.8 l 4.044285,0 0.180441,-0.825 c 0.09924,-0.45375 0.589039,-2.1075 1.088437,-3.675 4.269264,-13.400274 15.008487,-23.04993 29.222196,-26.25741 3.270771,-0.738086 11.060979,-0.902811 14.669634,-0.310192 12.107121,1.988251 22.550688,9.416647 28.218915,20.071804 L 99.049077,47.4 l -9.209442,0 -9.209442,0 -1.772433,-1.640961 C 68.992137,36.625212 52.460787,38.054784 44.243073,48.752394 42.92961,50.462229 40.5,54.926667 40.5,55.630338 40.5,55.723653 59.786196,55.8 83.358213,55.8 l 42.858217,0 0.18918,1.575 c 0.36451,3.034725 0.20168,11.315298 -0.28946,14.720433 -1.00361,6.958143 -2.98154,13.192284 -6.19087,19.512732 C 112.22225,106.77849 99.429444,117.9112 83.55,123.26309 c -6.599718,2.22432 -11.490696,3.05343 -18.75,3.17844 -3.2175,0.0554 -6.39,0.0442 -7.05,-0.025 z"
       id="path3602"
       inkscape:connector-curvature="0" />
    <path
       style="fill:#94c263"
       d="m 34.161732,90.675 c -0.373161,-0.475818 -0.36255,-0.486429 0.113268,-0.113268 0.28875,0.226455 0.525,0.462705 0.525,0.525 0,0.246912 -0.246357,0.08799 -0.638268,-0.411732 z M 45.721497,80.325 45.15,79.65 45.825,80.221497 C 46.459332,80.758563 46.636572,81 46.396497,81 c -0.05693,0 -0.360678,-0.30375 -0.675,-0.675 z M 79.5,80.886732 c 0,-0.06229 0.23625,-0.298545 0.525,-0.525 0.475818,-0.373161 0.486429,-0.36255 0.113268,0.113268 C 79.746357,80.974725 79.5,81.133644 79.5,80.886732 Z m 9.975,-9.711003 c 2.26875,-0.05096 5.98125,-0.05096 8.25,0 2.26875,0.05097 0.4125,0.09266 -4.125,0.09266 -4.5375,0 -6.39375,-0.0417 -4.125,-0.09266 z M 45.9,46.65 c 0.387525,-0.4125 0.772089,-0.75 0.854589,-0.75 0.0825,0 -0.167064,0.3375 -0.554589,0.75 -0.387525,0.4125 -0.772089,0.75 -0.854589,0.75 -0.0825,0 0.167064,-0.3375 0.554589,-0.75 z M 108.13113,18.825 107.25,17.85 l 0.975,0.881127 c 0.90884,0.821335 1.1129,1.068873 0.88113,1.068873 -0.0516,0 -0.49038,-0.43875 -0.975,-0.975 z M 18.3,18.45 c 0.387523,-0.4125 0.772088,-0.75 0.854588,-0.75 0.0825,0 -0.167065,0.3375 -0.554588,0.75 -0.387524,0.4125 -0.772088,0.75 -0.854588,0.75 -0.0825,0 0.167064,-0.3375 0.554588,-0.75 z"
       id="path3600"
       inkscape:connector-curvature="0" />
  </g>
</svg>
